<svg width="25" height="18" viewBox="0 0 25 18" fill="none" xmlns="http://www.w3.org/2000/svg">
	<path d="M4.5 6C4.5 5.44772 4.94772 5 5.5 5H9.5C10.0523 5 10.5 5.44772 10.5 6C10.5 6.55228 10.0523 7 9.5 7H5.5C4.94772 7 4.5 6.55228 4.5 6Z" fill="#D7DCDF" />
	<path fill-rule="evenodd" clip-rule="evenodd" d="M4.5 0C2.29086 0 0.5 1.79086 0.5 4V14C0.5 16.2091 2.29086 18 4.5 18H20.5C22.7091 18 24.5 16.2091 24.5 14V4C24.5 1.79086 22.7091 0 20.5 0H4.5ZM20.5 2H4.5C3.39543 2 2.5 2.89543 2.5 4V11H22.5V4C22.5 2.89543 21.6046 2 20.5 2ZM22.5 13H2.5V14C2.5 15.1046 3.39543 16 4.5 16H20.5C21.6046 16 22.5 15.1046 22.5 14V13Z" fill="#D7DCDF" />
</svg>
