<svg width="14" height="14" viewBox="0 0 14 14" fill="none" xmlns="http://www.w3.org/2000/svg">
	<path d="M13.2997 0.711177C13.1129 0.523924 12.8592 0.418691 12.5947 0.418691C12.3302 0.418691 12.0766 0.523924 11.8897 0.711177L6.99973 5.59118L2.10973 0.701177C1.9229 0.513924 1.66924 0.408691 1.40473 0.408691C1.14021 0.408691 0.886558 0.513924 0.699727 0.701177C0.309727 1.09118 0.309727 1.72118 0.699727 2.11118L5.58973 7.00118L0.699727 11.8912C0.309727 12.2812 0.309727 12.9112 0.699727 13.3012C1.08973 13.6912 1.71973 13.6912 2.10973 13.3012L6.99973 8.41118L11.8897 13.3012C12.2797 13.6912 12.9097 13.6912 13.2997 13.3012C13.6897 12.9112 13.6897 12.2812 13.2997 11.8912L8.40973 7.00118L13.2997 2.11118C13.6797 1.73118 13.6797 1.09118 13.2997 0.711177Z" fill="#9AA0A4" />
</svg>
