<svg width="20" height="20" viewBox="0 0 20 20" fill="none" xmlns="http://www.w3.org/2000/svg">
	<path fill-rule="evenodd" clip-rule="evenodd" d="M19.5659 1.77584C19.8783 1.46342 19.8783 0.95689 19.5659 0.644471C19.2535 0.332051 18.747 0.332051 18.4345 0.644471L14.5308 4.54819C13.2087 3.75789 11.6859 3.20898 10.0062 3.20898C4.0095 3.20898 0.0117188 10.2051 0.0117188 10.2051C0.0117188 10.2051 1.5474 12.8925 4.14287 14.9361L0.444542 18.6345C0.132123 18.9469 0.132123 19.4534 0.444542 19.7658C0.756961 20.0783 1.26349 20.0783 1.57591 19.7658L5.48041 15.8613C6.80277 16.652 8.32601 17.2012 10.0062 17.2012C16.0028 17.2012 20.0006 10.2051 20.0006 10.2051C20.0006 10.2051 18.4645 7.51698 15.8685 5.47327L19.5659 1.77584ZM13.358 5.72106C12.3246 5.16208 11.198 4.80898 10.0062 4.80898C7.63701 4.80898 5.52574 6.20423 3.89156 7.83841C3.09478 8.63519 2.46377 9.43752 2.03204 10.0419C1.99184 10.0982 1.95345 10.1527 1.91691 10.2051C1.95345 10.2575 1.99184 10.312 2.03204 10.3683C2.46377 10.9727 3.09478 11.775 3.89156 12.5718C4.32342 13.0036 4.7886 13.4188 5.28305 13.796L7.39601 11.683C7.14844 11.2468 7.00707 10.7425 7.00707 10.2051C7.00707 8.54916 8.34947 7.20676 10.0054 7.20676C10.5428 7.20676 11.0471 7.34813 11.4833 7.5957L13.358 5.72106ZM12.6147 8.72704L14.7283 6.61347C15.2231 6.99082 15.6886 7.40626 16.1208 7.83841C16.9175 8.63519 17.5486 9.43752 17.9803 10.0419C18.0205 10.0982 18.0589 10.1527 18.0954 10.2051C18.0589 10.2575 18.0205 10.312 17.9803 10.3683C17.5486 10.9727 16.9175 11.775 16.1208 12.5718C14.4866 14.206 12.3753 15.6012 10.0062 15.6012C8.8139 15.6012 7.68694 15.2479 6.65324 14.6885L8.52735 12.8144C8.96356 13.062 9.46797 13.2034 10.0054 13.2034C11.6613 13.2034 13.0037 11.861 13.0037 10.2051C13.0037 9.66766 12.8623 9.16325 12.6147 8.72704ZM10.2508 8.82822C10.1711 8.81412 10.0891 8.80676 10.0054 8.80676C9.23313 8.80676 8.60707 9.43282 8.60707 10.2051C8.60707 10.2888 8.61443 10.3708 8.62853 10.4505L10.2508 8.82822ZM9.75982 11.5819L11.3822 9.95951C11.3964 10.0392 11.4037 10.1213 11.4037 10.2051C11.4037 10.9774 10.7777 11.6034 10.0054 11.6034C9.92162 11.6034 9.83955 11.5961 9.75982 11.5819ZM1.39962 11.0012C1.39943 11.0015 1.39947 11.0014 1.39975 11.0009L1.39962 11.0012Z" fill="#9AA0A4" />
</svg>
