<svg width="81" height="20" viewBox="0 0 81 20" fill="none" xmlns="http://www.w3.org/2000/svg">
	<g clip-path="url(#clip0_1510_18830)">
		<path d="M22.0314 0.397361C17.2249 0.397361 15.0571 3.96731 15.0571 3.96731C15.0571 3.96731 13.3249 0.353911 7.94299 0.397361C2.36377 0.441986 0.397949 4.33018 0.397949 9.08737V13.5428C0.997565 13.2034 1.67479 13.025 2.36377 13.0249C3.19384 13.0233 4.00565 13.2685 4.69598 13.7295V8.903C4.69598 6.02238 6.02297 4.37598 8.4914 4.37598C11.2816 4.37598 13.0654 6.61659 13.0654 6.61659V18.2788C13.0727 18.507 13.1666 18.7237 13.3281 18.8852C13.4895 19.0466 13.7063 19.1405 13.9344 19.1478H16.04C16.268 19.1402 16.4846 19.0462 16.646 18.8848C16.8073 18.7235 16.9013 18.5069 16.909 18.2788V6.61659C16.909 6.61659 18.6928 4.37598 21.4818 4.37598C23.9479 4.37598 25.2784 6.02003 25.2784 8.903V18.2788C25.2782 18.393 25.3006 18.506 25.3442 18.6115C25.3878 18.7171 25.4518 18.8129 25.5326 18.8936C25.6133 18.9744 25.7091 19.0384 25.8146 19.082C25.9201 19.1256 26.0332 19.148 26.1474 19.1478H28.7074C28.8216 19.148 28.9346 19.1256 29.0401 19.082C29.1456 19.0384 29.2415 18.9744 29.3222 18.8936C29.403 18.8129 29.467 18.7171 29.5106 18.6115C29.5542 18.506 29.5766 18.393 29.5764 18.2788V9.08619C29.5764 4.33018 27.6106 0.397361 22.0314 0.397361Z" fill="#0A2240" />
		<path d="M2.39915 19.5459C3.72416 19.5459 4.79829 18.4717 4.79829 17.1467C4.79829 15.8217 3.72416 14.7476 2.39915 14.7476C1.07413 14.7476 0 15.8217 0 17.1467C0 18.4717 1.07413 19.5459 2.39915 19.5459Z" fill="#0A2240" />
		<path d="M43.1598 0.396973C48.2822 0.396973 52.3982 4.7866 52.3982 9.95481C52.3982 15.2146 48.2822 19.6054 43.1598 19.6054C38.0374 19.6054 33.9214 15.2146 33.9214 9.95481C33.9214 4.7866 38.0374 0.396973 43.1598 0.396973ZM43.1598 15.6714C46.0404 15.6714 48.3268 13.1102 48.3268 9.95481C48.3268 6.89099 46.0393 4.37559 43.1598 4.37559C40.2804 4.37559 37.9928 6.89099 37.9928 9.95481C37.9916 13.1102 40.2792 15.6714 43.1598 15.6714Z" fill="#0A2240" />
		<path d="M54.5018 1.90605C54.227 1.31184 54.5018 0.84916 55.1888 0.84916H57.8897C58.0618 0.838862 58.233 0.881653 58.38 0.97175C58.527 1.06185 58.6428 1.19491 58.7117 1.35295L63.4678 12.1462H63.5136L68.4504 1.35764C68.6853 0.853857 69.182 0.853857 69.6858 0.853857H71.789C72.476 0.853857 72.7496 1.31184 72.476 1.91075L64.3802 19.1475C64.2898 19.3824 64.015 19.6055 63.6028 19.6055H63.375C63.2145 19.6146 63.0549 19.5759 62.9163 19.4944C62.7778 19.4129 62.6664 19.2922 62.5964 19.1475L54.5018 1.90605Z" fill="#0A2240" />
		<path d="M78.0635 7.24458C77.3169 7.24566 76.5848 7.03824 75.9497 6.64567V18.214C75.9497 18.6038 76.3607 19.1475 76.8187 19.1475H79.4257C79.8825 19.1475 80.2947 18.6038 80.2947 18.214V6.61279C79.625 7.02869 78.8518 7.24764 78.0635 7.24458Z" fill="#0A2240" />
		<path d="M78.1008 5.47603C79.4258 5.47603 80.5 4.40189 80.5 3.07688C80.5 1.75187 79.4258 0.677734 78.1008 0.677734C76.7758 0.677734 75.7017 1.75187 75.7017 3.07688C75.7017 4.40189 76.7758 5.47603 78.1008 5.47603Z" fill="#0A2240" />
	</g>
	<defs>
		<clipPath id="clip0_1510_18830">
			<rect width="80.5" height="19.2084" fill="white" transform="translate(0 0.395996)" />
		</clipPath>
	</defs>
</svg>
