<svg width="152" height="152" viewBox="0 0 152 152" fill="none" xmlns="http://www.w3.org/2000/svg">
	<path opacity="0.3" d="M146.139 11.7214C142.91 11.7214 140.279 9.0901 140.279 5.86073C140.279 2.63135 142.91 0 146.139 0C149.369 0 152 2.63135 152 5.86073C152 9.11004 149.369 11.7214 146.139 11.7214ZM152 40.9254C152 37.696 149.369 35.0647 146.139 35.0647C142.91 35.0647 140.279 37.696 140.279 40.9254C140.279 44.1548 142.91 46.7861 146.139 46.7861C149.369 46.7861 152 44.1747 152 40.9254ZM152 75.99C152 72.7607 149.369 70.1293 146.139 70.1293C142.91 70.1293 140.279 72.7607 140.279 75.99C140.279 79.2194 142.91 81.8508 146.139 81.8508C149.369 81.8707 152 79.2393 152 75.99ZM152 111.075C152 107.845 149.369 105.214 146.139 105.214C142.91 105.214 140.279 107.845 140.279 111.075C140.279 114.304 142.91 116.935 146.139 116.935C149.369 116.935 152 114.304 152 111.075ZM152 146.139C152 142.91 149.369 140.279 146.139 140.279C142.91 140.279 140.279 142.91 140.279 146.139C140.279 149.369 142.91 152 146.139 152C149.369 152 152 149.369 152 146.139ZM116.935 5.86073C116.935 2.63135 114.304 0 111.075 0C107.845 0 105.214 2.63135 105.214 5.86073C105.214 9.0901 107.845 11.7214 111.075 11.7214C114.304 11.7214 116.935 9.11004 116.935 5.86073ZM116.935 40.9254C116.935 37.696 114.304 35.0647 111.075 35.0647C107.845 35.0647 105.214 37.696 105.214 40.9254C105.214 44.1548 107.845 46.7861 111.075 46.7861C114.304 46.7861 116.935 44.1747 116.935 40.9254ZM116.935 75.99C116.935 72.7607 114.304 70.1293 111.075 70.1293C107.845 70.1293 105.214 72.7607 105.214 75.99C105.214 79.2194 107.845 81.8508 111.075 81.8508C114.304 81.8707 116.935 79.2393 116.935 75.99ZM116.935 111.075C116.935 107.845 114.304 105.214 111.075 105.214C107.845 105.214 105.214 107.845 105.214 111.075C105.214 114.304 107.845 116.935 111.075 116.935C114.304 116.935 116.935 114.304 116.935 111.075ZM116.935 146.139C116.935 142.91 114.304 140.279 111.075 140.279C107.845 140.279 105.214 142.91 105.214 146.139C105.214 149.369 107.845 152 111.075 152C114.304 152 116.935 149.369 116.935 146.139ZM81.8508 5.86073C81.8508 2.63135 79.2194 0 75.99 0C72.7606 0 70.1293 2.63135 70.1293 5.86073C70.1293 9.0901 72.7606 11.7214 75.99 11.7214C79.2393 11.7214 81.8508 9.11004 81.8508 5.86073ZM81.8508 40.9254C81.8508 37.696 79.2194 35.0647 75.99 35.0647C72.7606 35.0647 70.1293 37.696 70.1293 40.9254C70.1293 44.1548 72.7606 46.7861 75.99 46.7861C79.2393 46.7861 81.8508 44.1747 81.8508 40.9254ZM81.8508 75.99C81.8508 72.7607 79.2194 70.1293 75.99 70.1293C72.7606 70.1293 70.1293 72.7607 70.1293 75.99C70.1293 79.2194 72.7606 81.8508 75.99 81.8508C79.2393 81.8707 81.8508 79.2393 81.8508 75.99ZM81.8508 111.075C81.8508 107.845 79.2194 105.214 75.99 105.214C72.7606 105.214 70.1293 107.845 70.1293 111.075C70.1293 114.304 72.7606 116.935 75.99 116.935C79.2393 116.935 81.8508 114.304 81.8508 111.075ZM81.8508 146.139C81.8508 142.91 79.2194 140.279 75.99 140.279C72.7606 140.279 70.1293 142.91 70.1293 146.139C70.1293 149.369 72.7606 152 75.99 152C79.2393 152 81.8508 149.369 81.8508 146.139ZM46.786 5.86073C46.786 2.63135 44.1547 0 40.9253 0C37.6959 0 35.0647 2.63135 35.0647 5.86073C35.0647 9.0901 37.6959 11.7214 40.9253 11.7214C44.1746 11.7214 46.786 9.11004 46.786 5.86073ZM46.786 40.9254C46.786 37.696 44.1547 35.0647 40.9253 35.0647C37.6959 35.0647 35.0647 37.696 35.0647 40.9254C35.0647 44.1548 37.6959 46.7861 40.9253 46.7861C44.1746 46.7861 46.786 44.1747 46.786 40.9254ZM46.786 75.99C46.786 72.7607 44.1547 70.1293 40.9253 70.1293C37.6959 70.1293 35.0647 72.7607 35.0647 75.99C35.0647 79.2194 37.6959 81.8508 40.9253 81.8508C44.1746 81.8707 46.786 79.2393 46.786 75.99ZM46.786 111.075C46.786 107.845 44.1547 105.214 40.9253 105.214C37.6959 105.214 35.0647 107.845 35.0647 111.075C35.0647 114.304 37.6959 116.935 40.9253 116.935C44.1746 116.935 46.786 114.304 46.786 111.075ZM46.786 146.139C46.786 142.91 44.1547 140.279 40.9253 140.279C37.6959 140.279 35.0647 142.91 35.0647 146.139C35.0647 149.369 37.6959 152 40.9253 152C44.1746 152 46.786 149.369 46.786 146.139ZM11.7215 5.86073C11.7215 2.63135 9.0901 0 5.86073 0C2.63135 0 0 2.63135 0 5.86073C0 9.0901 2.63135 11.7214 5.86073 11.7214C9.0901 11.7214 11.7215 9.11004 11.7215 5.86073ZM11.7215 40.9254C11.7215 37.696 9.0901 35.0647 5.86073 35.0647C2.63135 35.0647 0 37.696 0 40.9254C0 44.1548 2.63135 46.7861 5.86073 46.7861C9.0901 46.7861 11.7215 44.1747 11.7215 40.9254ZM11.7215 75.99C11.7215 72.7607 9.0901 70.1293 5.86073 70.1293C2.63135 70.1293 0 72.7607 0 75.99C0 79.2194 2.63135 81.8508 5.86073 81.8508C9.0901 81.8508 11.7215 79.2393 11.7215 75.99ZM11.7215 111.075C11.7215 107.845 9.0901 105.214 5.86073 105.214C2.63135 105.214 0 107.845 0 111.075C0 114.304 2.63135 116.935 5.86073 116.935C9.0901 116.935 11.7215 114.304 11.7215 111.075ZM11.7215 146.139C11.7215 142.91 9.0901 140.279 5.86073 140.279C2.63135 140.279 0 142.91 0 146.139C0 149.369 2.63135 152 5.86073 152C9.0901 152 11.7215 149.369 11.7215 146.139Z" fill="#F4F6F9" />
</svg>
