<svg width="20" height="15" viewBox="0 0 20 15" fill="none" xmlns="http://www.w3.org/2000/svg">
	<path fill-rule="evenodd" clip-rule="evenodd" d="M10 0.00292969C16 0.00292969 20.0001 7.00295 20.0001 7.00295C20.0001 7.00295 16 14.003 10 14.003C4.00001 14.003 0 7.00295 0 7.00295C0 7.00295 4.00001 0.00292969 10 0.00292969ZM1.90516 7.00295C1.94183 6.95033 1.98036 6.89568 2.02073 6.83918C2.45271 6.2344 3.08411 5.43158 3.88138 4.63431C5.51653 2.99915 7.6292 1.60293 10 1.60293C12.3709 1.60293 14.4835 2.99915 16.1187 4.63431C16.9159 5.43158 17.5473 6.2344 17.9793 6.83918C18.0197 6.89568 18.0582 6.95033 18.0949 7.00295C18.0582 7.05557 18.0197 7.11021 17.9793 7.16672C17.5473 7.7715 16.9159 8.57432 16.1187 9.37159C14.4835 11.0067 12.3709 12.403 10 12.403C7.6292 12.403 5.51653 11.0067 3.88138 9.37159C3.08411 8.57432 2.45271 7.7715 2.02073 7.16672C1.98036 7.11021 1.94183 7.05557 1.90516 7.00295ZM11.3996 7.00294C11.3996 7.77614 10.7728 8.40294 9.99964 8.40294C9.22643 8.40294 8.59963 7.77614 8.59963 7.00294C8.59963 6.22973 9.22643 5.60293 9.99964 5.60293C10.7728 5.60293 11.3996 6.22973 11.3996 7.00294ZM9.99964 10.0029C11.6565 10.0029 12.9996 8.6598 12.9996 7.00294C12.9996 5.34608 11.6565 4.00293 9.99964 4.00293C8.34278 4.00293 6.99963 5.34608 6.99963 7.00294C6.99963 8.6598 8.34278 10.0029 9.99964 10.0029Z" fill="#9AA0A4" />
</svg>
