<svg width="81" height="20" viewBox="0 0 81 20" fill="none" xmlns="http://www.w3.org/2000/svg">
	<g clip-path="url(#clip0_1510_19133)">
		<path d="M22.0314 0.396873C17.2249 0.396873 15.0571 3.96682 15.0571 3.96682C15.0571 3.96682 13.3249 0.353423 7.94299 0.396873C2.36377 0.441497 0.397949 4.32969 0.397949 9.08688V13.5423C0.997565 13.2029 1.67479 13.0245 2.36377 13.0244C3.19384 13.0228 4.00565 13.268 4.69598 13.729V8.90251C4.69598 6.02189 6.02297 4.37549 8.4914 4.37549C11.2816 4.37549 13.0654 6.6161 13.0654 6.6161V18.2783C13.0727 18.5065 13.1666 18.7233 13.3281 18.8847C13.4895 19.0461 13.7063 19.14 13.9344 19.1473H16.04C16.268 19.1397 16.4846 19.0457 16.646 18.8844C16.8073 18.723 16.9013 18.5064 16.909 18.2783V6.6161C16.909 6.6161 18.6928 4.37549 21.4818 4.37549C23.9479 4.37549 25.2784 6.01954 25.2784 8.90251V18.2783C25.2782 18.3925 25.3006 18.5056 25.3442 18.6111C25.3878 18.7166 25.4518 18.8124 25.5326 18.8931C25.6133 18.9739 25.7091 19.0379 25.8146 19.0815C25.9201 19.1251 26.0332 19.1475 26.1474 19.1473H28.7074C28.8216 19.1475 28.9346 19.1251 29.0401 19.0815C29.1456 19.0379 29.2415 18.9739 29.3222 18.8931C29.403 18.8124 29.467 18.7166 29.5106 18.6111C29.5542 18.5056 29.5766 18.3925 29.5764 18.2783V9.08571C29.5764 4.32969 27.6106 0.396873 22.0314 0.396873Z" fill="white" />
		<path d="M2.39915 19.5454C3.72416 19.5454 4.79829 18.4712 4.79829 17.1462C4.79829 15.8212 3.72416 14.7471 2.39915 14.7471C1.07413 14.7471 0 15.8212 0 17.1462C0 18.4712 1.07413 19.5454 2.39915 19.5454Z" fill="white" />
		<path d="M43.1598 0.396484C48.2822 0.396484 52.3982 4.78611 52.3982 9.95432C52.3982 15.2141 48.2822 19.6049 43.1598 19.6049C38.0374 19.6049 33.9214 15.2141 33.9214 9.95432C33.9214 4.78611 38.0374 0.396484 43.1598 0.396484ZM43.1598 15.6709C46.0404 15.6709 48.3268 13.1097 48.3268 9.95432C48.3268 6.8905 46.0393 4.3751 43.1598 4.3751C40.2804 4.3751 37.9928 6.8905 37.9928 9.95432C37.9916 13.1097 40.2792 15.6709 43.1598 15.6709Z" fill="white" />
		<path d="M54.5018 1.90605C54.227 1.31184 54.5018 0.84916 55.1888 0.84916H57.8897C58.0618 0.838862 58.233 0.881653 58.38 0.97175C58.527 1.06185 58.6428 1.19491 58.7117 1.35295L63.4678 12.1462H63.5136L68.4504 1.35764C68.6853 0.853857 69.182 0.853857 69.6858 0.853857H71.789C72.476 0.853857 72.7496 1.31184 72.476 1.91075L64.3802 19.1475C64.2898 19.3824 64.015 19.6055 63.6028 19.6055H63.375C63.2145 19.6146 63.0549 19.5759 62.9163 19.4944C62.7778 19.4129 62.6664 19.2922 62.5964 19.1475L54.5018 1.90605Z" fill="white" />
		<path d="M78.0635 7.24409C77.3169 7.24517 76.5848 7.03775 75.9497 6.64519V18.2135C75.9497 18.6033 76.3607 19.1471 76.8187 19.1471H79.4257C79.8825 19.1471 80.2947 18.6033 80.2947 18.2135V6.6123C79.625 7.0282 78.8518 7.24715 78.0635 7.24409Z" fill="white" />
		<path d="M78.1008 5.47603C79.4258 5.47603 80.5 4.40189 80.5 3.07688C80.5 1.75187 79.4258 0.677734 78.1008 0.677734C76.7758 0.677734 75.7017 1.75187 75.7017 3.07688C75.7017 4.40189 76.7758 5.47603 78.1008 5.47603Z" fill="white" />
	</g>
	<defs>
		<clipPath id="clip0_1510_19133">
			<rect width="80.5" height="19.2084" fill="white" transform="translate(0 0.395508)" />
		</clipPath>
	</defs>
</svg>
