<svg width="20" height="18" viewBox="0 0 20 18" fill="none" xmlns="http://www.w3.org/2000/svg">
	<path fill-rule="evenodd" clip-rule="evenodd" d="M13.2689 14.6282C12.5113 14.8008 12.0029 15.4846 12.0246 16.2328L13.6243 16.1883C15.0947 15.8533 16.4441 15.1191 17.5241 14.0665C18.6041 13.014 19.3728 11.6839 19.7456 10.2227C20.1184 8.7614 20.0808 7.22562 19.637 5.78434C19.1932 4.34306 18.3604 3.05217 17.2302 2.05372C16.1 1.05528 14.7162 0.387991 13.2312 0.125306C11.7462 -0.137378 10.2175 0.0147208 8.81336 0.564864C7.40923 1.11501 6.18409 2.04187 5.27278 3.24344C4.36147 4.445 3.79932 5.8747 3.6482 7.37517C2.54491 7.59901 1.56365 8.22361 0.893804 9.12842C0.22396 10.0332 -0.086977 11.1541 0.021006 12.2746C0.128989 13.3952 0.648237 14.4361 1.47853 15.1963C2.30882 15.9566 3.3913 16.3823 4.51703 16.3913H6.33848L7.93787 16.3468C7.91426 15.4837 7.20723 14.7913 6.33848 14.7913H4.52417C3.79604 14.7841 3.09617 14.5081 2.55903 14.0163C2.02047 13.5232 1.68367 12.848 1.61363 12.1212C1.54359 11.3943 1.74527 10.6673 2.17975 10.0804C2.61424 9.49355 3.25071 9.08841 3.96634 8.94322C4.65354 8.8038 5.16988 8.23317 5.24015 7.5355C5.36177 6.32793 5.81418 5.17732 6.5476 4.2103C7.28102 3.24329 8.26701 2.49735 9.39705 2.0546C10.5271 1.61185 11.7574 1.48944 12.9525 1.70085C14.1476 1.91225 15.2613 2.44928 16.1708 3.25283C17.0804 4.05637 17.7507 5.09528 18.1079 6.25521C18.4651 7.41515 18.4953 8.65113 18.1953 9.82715C17.8953 11.0032 17.2766 12.0736 16.4074 12.9207C15.5382 13.7678 14.4522 14.3586 13.2689 14.6282ZM9.98215 7.39485C10.0374 7.39485 10.0913 7.40044 10.1434 7.4111C10.2917 7.44141 10.4331 7.5141 10.5482 7.62916L14.1911 11.2721C14.5035 11.5845 14.5035 12.091 14.1911 12.4034C13.8786 12.7159 13.3721 12.7159 13.0597 12.4034L10.7822 10.1259V16.3914C10.7822 16.8332 10.424 17.1914 9.98215 17.1914C9.54032 17.1914 9.18215 16.8332 9.18215 16.3914V10.1265L6.90526 12.4034C6.59284 12.7159 6.08631 12.7159 5.77389 12.4034C5.46147 12.091 5.46147 11.5845 5.77389 11.2721L9.40302 7.64294C9.54872 7.49009 9.75431 7.39485 9.98215 7.39485Z" fill="black" />
</svg>
