<svg width="21" height="20" viewBox="0 0 21 20" fill="none" xmlns="http://www.w3.org/2000/svg">
	<path fill-rule="evenodd" clip-rule="evenodd" d="M2.99878 0.866211C2.55695 0.866211 2.19878 1.22438 2.19878 1.66621C2.19878 2.10804 2.55695 2.46621 2.99878 2.46621H17.999C18.4409 2.46621 18.799 2.10804 18.799 1.66621C18.799 1.22438 18.4409 0.866211 17.999 0.866211H2.99878ZM0.532715 4.99958C0.532715 4.55775 0.890887 4.19958 1.33271 4.19958H19.6664C20.1082 4.19958 20.4664 4.55775 20.4664 4.99958V18.3332C20.4664 18.775 20.1082 19.1332 19.6664 19.1332H1.33271C0.890887 19.1332 0.532715 18.775 0.532715 18.3332V4.99958ZM2.13271 5.79958V17.5331H18.8664V5.79958H2.13271ZM10.499 9.96636C9.56009 9.96636 8.79896 10.7275 8.79896 11.6664C8.79896 12.6053 9.56009 13.3664 10.499 13.3664C11.4379 13.3664 12.199 12.6053 12.199 11.6664C12.199 10.7275 11.4379 9.96636 10.499 9.96636ZM7.19896 11.6664C7.19896 9.84383 8.67644 8.36635 10.499 8.36635C12.3216 8.36635 13.799 9.84383 13.799 11.6664C13.799 13.489 12.3216 14.9664 10.499 14.9664C8.67644 14.9664 7.19896 13.489 7.19896 11.6664Z" fill="#D7DCDF" />
</svg>
